<svg xmlns="http://www.w3.org/2000/svg" viewBox="0 0 1280 360" role="img" aria-labelledby="title desc">
  <title id="title">RaporGo — visual report editor</title>
  <desc id="desc">README header showing the RaporGo desktop editor and its live PDF preview.</desc>
  <defs><filter id="shadow" x="-15%" y="-25%" width="130%" height="160%"><feDropShadow dx="0" dy="12" stdDeviation="16" flood-color="#1B2A4A" flood-opacity=".14"/></filter></defs>
  <rect width="1280" height="360" rx="28" fill="#F4F7FB"/>
  <path d="M0 286c230-44 351 51 580 4 236-49 340-168 700-126v196H0Z" fill="#EAF0FA"/>
  <g transform="translate(66 57)">
    <g transform="scale(1.08)">
      <path fill="#1B2A4A" d="M13 6h26l12 12v37a3 3 0 0 1-3 3H13a3 3 0 0 1-3-3V9a3 3 0 0 1 3-3Z"/>
      <path fill="#F0A500" d="M39 6v10a2 2 0 0 0 2 2h10L39 6Z"/>
      <path fill="#FFF" d="M18 26h25a3 3 0 0 1 0 6H18a3 3 0 0 1 0-6Zm0 10h20a3 3 0 0 1 0 6H18a3 3 0 0 1 0-6Zm0 10h14a3 3 0 0 1 0 6H18a3 3 0 0 1 0-6Z"/>
      <path fill="#F0A500" d="M4 26h14v6H4a3 3 0 0 1 0-6Zm3 10h11v6H7a3 3 0 0 1 0-6Zm5 10h6v6h-6a3 3 0 0 1 0-6Z"/>
    </g>
    <text x="84" y="56" fill="#1B2A4A" font-family="Inter, Segoe UI, Arial, sans-serif" font-size="46" font-weight="750" letter-spacing="-2">Rapor<tspan fill="#D88F00">Go</tspan></text>
    <text x="0" y="145" fill="#1B2A4A" font-family="Inter, Segoe UI, Arial, sans-serif" font-size="40" font-weight="720" letter-spacing="-1.5">Edit your report. Get the PDF.</text>
    <text x="0" y="191" fill="#60718D" font-family="Inter, Segoe UI, Arial, sans-serif" font-size="21">A visual desktop editor with a live page preview.</text>
    <text x="0" y="230" fill="#8796AA" font-family="Inter, Segoe UI, Arial, sans-serif" font-size="16">JSON and CLI automation, ready when you want it.</text>
  </g>
  <g transform="translate(786 38)" filter="url(#shadow)">
    <rect width="430" height="284" rx="14" fill="#E9EEF6"/>
    <rect x="9" y="9" width="412" height="29" rx="8" fill="#FFF"/><circle cx="24" cy="23.5" r="3.5" fill="#F0A500"/><rect x="35" y="20" width="90" height="7" rx="3.5" fill="#1B2A4A"/><rect x="350" y="15" width="60" height="17" rx="5" fill="#F0A500"/>
    <rect x="9" y="47" width="88" height="228" rx="8" fill="#FFF"/>
    <rect x="17" y="59" width="72" height="32" rx="6" fill="#EAF0FA" stroke="#2E5090"/><rect x="24" y="68" width="31" height="5" rx="2.5" fill="#2E5090"/><rect x="24" y="78" width="53" height="3" rx="1.5" fill="#9CACBF"/>
    <rect x="17" y="98" width="72" height="32" rx="6" fill="#F7F9FC"/><rect x="24" y="107" width="37" height="5" rx="2.5" fill="#68788E"/><rect x="24" y="117" width="48" height="3" rx="1.5" fill="#C0C8D4"/>
    <rect x="105" y="47" width="207" height="228" rx="8" fill="#CFD7E3"/>
    <rect x="131" y="56" width="155" height="210" rx="2" fill="#FFF"/><rect x="131" y="56" width="155" height="27" rx="2" fill="#1B2A4A"/>
    <rect x="144" y="98" width="72" height="7" rx="3.5" fill="#1B2A4A"/><rect x="144" y="116" width="126" height="3" rx="1.5" fill="#BBC5D2"/><rect x="144" y="125" width="113" height="3" rx="1.5" fill="#D0D7E1"/><rect x="144" y="147" width="49" height="5" rx="2.5" fill="#2E5090"/>
    <rect x="144" y="165" width="126" height="68" rx="5" fill="#EAF0FA"/><rect x="158" y="204" width="14" height="19" rx="2" fill="#9EB2D4"/><rect x="180" y="190" width="14" height="33" rx="2" fill="#6685B8"/><rect x="202" y="178" width="14" height="45" rx="2" fill="#2E5090"/><rect x="224" y="197" width="14" height="26" rx="2" fill="#8099C2"/><rect x="246" y="185" width="11" height="38" rx="2" fill="#F0A500"/>
    <rect x="320" y="47" width="101" height="228" rx="8" fill="#FFF"/><rect x="330" y="62" width="42" height="6" rx="3" fill="#1B2A4A"/>
    <rect x="330" y="87" width="81" height="22" rx="5" fill="#F7F9FC" stroke="#DDE3EE"/><rect x="330" y="120" width="81" height="50" rx="5" fill="#F7F9FC" stroke="#DDE3EE"/><rect x="337" y="130" width="63" height="3" rx="1.5" fill="#AAB5C7"/><rect x="337" y="140" width="57" height="3" rx="1.5" fill="#C0C8D4"/><rect x="337" y="150" width="66" height="3" rx="1.5" fill="#C0C8D4"/><rect x="330" y="188" width="81" height="23" rx="5" fill="#2E5090"/>
  </g>
</svg>
